<?xml version="1.0" standalone="no"?>
<!DOCTYPE svg PUBLIC "-//W3C//DTD SVG 20010904//EN"
 "http://www.w3.org/TR/2001/REC-SVG-20010904/DTD/svg10.dtd">
<svg version="1.0" xmlns="http://www.w3.org/2000/svg"
 width="256.000000pt" height="256.000000pt" viewBox="0 0 256.000000 256.000000"
 preserveAspectRatio="xMidYMid meet">

<g transform="translate(0.000000,256.000000) scale(0.100000,-0.100000)"
fill="#000000" stroke="none">
<path d="M1120 2338 c0 -7 39 -33 87 -58 101 -52 187 -126 203 -174 10 -32 5
-86 -9 -86 -3 1 -19 19 -34 42 -18 26 -32 37 -38 31 -6 -6 3 -28 25 -61 39
-58 61 -116 52 -137 -8 -21 -40 -18 -61 5 -10 11 -23 20 -29 20 -6 0 -17 -9
-24 -20 -16 -26 -47 -25 -66 2 l-15 21 -19 -24 c-17 -20 -23 -22 -45 -12 -14
7 -44 39 -66 72 -45 66 -84 101 -112 101 -28 0 -23 -17 10 -35 17 -8 43 -34
59 -57 l29 -42 -23 -47 c-13 -26 -27 -75 -30 -108 l-7 -61 -51 0 c-69 -1 -137
-15 -146 -30 -20 -33 -64 -439 -52 -482 l9 -33 7 35 c3 19 15 116 27 215 27
245 28 249 64 256 17 4 56 7 87 8 l57 1 3 -72 c2 -40 8 -73 13 -73 6 0 11 33
13 73 l3 72 219 0 219 0 6 -52 c4 -29 5 -59 3 -67 -1 -7 3 -16 10 -18 9 -3 12
14 12 66 l0 71 33 0 c17 0 55 -3 83 -6 l52 -7 16 -86 c8 -47 20 -129 26 -181
6 -52 16 -98 23 -102 7 -4 13 -2 15 5 5 21 -46 355 -57 375 -10 19 -70 32
-153 32 -37 0 -38 1 -38 40 0 71 -21 139 -56 186 l-35 46 17 44 c16 41 16 47
0 88 -25 65 -97 129 -208 186 -106 55 -108 56 -108 38z m357 -559 l6 -69 -222
0 -221 0 0 25 c0 39 20 121 34 141 13 17 15 16 41 -4 30 -24 65 -28 82 -11 8
8 17 8 31 0 29 -15 52 -14 74 6 17 15 19 15 36 0 28 -26 69 -21 89 9 l16 26
14 -27 c8 -14 17 -57 20 -96z"/>
<path d="M1750 1160 c0 -5 7 -10 15 -10 8 0 15 5 15 10 0 6 -7 10 -15 10 -8 0
-15 -4 -15 -10z"/>
<path d="M1767 1093 c-16 -16 -2 -123 17 -123 7 0 10 21 8 65 -3 61 -9 74 -25
58z"/>
<path d="M726 988 c-3 -46 -9 -104 -13 -130 l-6 -48 552 0 551 0 0 53 c0 30
-3 57 -7 61 -5 4 -8 13 -8 19 0 5 -5 12 -12 14 -9 3 -11 -11 -6 -56 l5 -61
-522 0 -522 0 5 28 c3 15 9 67 13 115 6 74 4 87 -8 87 -12 0 -17 -19 -22 -82z"/>
</g>
</svg>
